<svg xmlns="http://www.w3.org/2000/svg" viewBox="0 0 1600 1000"><defs><radialGradient id="bg" cx="42%" cy="48%" r="72%"><stop stop-color="#1d3c74"/><stop offset=".57" stop-color="#07162d"/><stop offset="1" stop-color="#020713"/></radialGradient><linearGradient id="a" x1="0" x2="1"><stop stop-color="#5bdcff"/><stop offset=".55" stop-color="#43f0d0"/><stop offset="1" stop-color="#ffd16d"/></linearGradient><filter id="g"><feGaussianBlur stdDeviation="5" result="b"/><feMerge><feMergeNode in="b"/><feMergeNode in="SourceGraphic"/></feMerge></filter></defs><rect width="1600" height="1000" fill="url(#bg)"/><g opacity=".18" fill="#fff"><circle cx="230" cy="230" r="2"/><circle cx="390" cy="720" r="2"/><circle cx="1330" cy="250" r="2"/><circle cx="1200" cy="770" r="2"/><circle cx="800" cy="160" r="2"/><circle cx="1020" cy="500" r="2"/></g><circle cx="420" cy="610" r="120" fill="#193f70" stroke="#5bdcff" stroke-width="3"/><circle cx="1160" cy="360" r="78" fill="#4a2d45" stroke="#ffd16d" stroke-width="3"/><path d="M420 610C610 220 920 170 1160 360" fill="none" stroke="url(#a)" stroke-width="6" filter="url(#g)"/><path d="M700 370c80 80 155 115 260 112" fill="none" stroke="#43f0d0" stroke-width="3" opacity=".75"/><g transform="translate(900 250) rotate(20)"><path d="M0 30 150 0 105 72 150 145 0 112z" fill="#dff9ff" opacity=".86"/><path d="M0 30 105 72 0 112z" fill="#5bdcff" opacity=".55"/></g><g font-family="Arial" font-weight="800"><text x="90" y="112" fill="#8eefff" font-size="32">CASE STUDY</text><text x="90" y="174" fill="#fff" font-size="62">Deep-space Transfer Design</text><text x="90" y="222" fill="#a9bbcc" font-size="24">windows · gravity assist · low-thrust · verification</text></g></svg>