<svg xmlns="http://www.w3.org/2000/svg" viewBox="0 0 1600 1000"><defs><radialGradient id="bg" cx="48%" cy="44%" r="70%"><stop stop-color="#173c70"/><stop offset=".55" stop-color="#07162d"/><stop offset="1" stop-color="#020713"/></radialGradient><filter id="g"><feGaussianBlur stdDeviation="4" result="b"/><feMerge><feMergeNode in="b"/><feMergeNode in="SourceGraphic"/></feMerge></filter></defs><rect width="1600" height="1000" fill="url(#bg)"/><g stroke="#5bdcff" stroke-width="3" opacity=".56" filter="url(#g)"><path d="M310 520 520 300 805 470 1040 255 1285 505 1065 735 790 610 515 740z" fill="none"/><path d="M520 300 515 740M805 470 790 610M1040 255 1065 735M310 520h975" fill="none" opacity=".45"/></g><g fill="#43f0d0" filter="url(#g)"><circle cx="310" cy="520" r="18"/><circle cx="520" cy="300" r="18"/><circle cx="805" cy="470" r="18"/><circle cx="1040" cy="255" r="18"/><circle cx="1285" cy="505" r="18"/><circle cx="1065" cy="735" r="18"/><circle cx="790" cy="610" r="18"/><circle cx="515" cy="740" r="18"/></g><g font-family="Arial" font-weight="800"><text x="90" y="112" fill="#8eefff" font-size="32">KNOWLEDGE FABRIC</text><text x="90" y="172" fill="#fff" font-size="58">Evidence-linked Research Map</text><text x="90" y="220" fill="#a9bbcc" font-size="24">source · note · model · experiment · conclusion</text></g></svg>