<svg xmlns="http://www.w3.org/2000/svg" width="1400" height="760" viewBox="0 0 1400 760"><defs><linearGradient id="bg" x1="0" y1="0" x2="1" y2="1"><stop stop-color="#06152d"/><stop offset="1" stop-color="#020713"/></linearGradient><linearGradient id="c" x1="0" x2="1"><stop stop-color="#67e8f9"/><stop offset="1" stop-color="#34d399"/></linearGradient><filter id="g"><feGaussianBlur stdDeviation="6" result="b"/><feMerge><feMergeNode in="b"/><feMergeNode in="SourceGraphic"/></feMerge></filter></defs><rect width="1400" height="760" rx="40" fill="url(#bg)"/><g stroke="#7dd3fc" stroke-opacity=".1"><path d="M0 120h1400M0 240h1400M0 360h1400M0 480h1400M0 600h1400M180 0v760M360 0v760M540 0v760M720 0v760M900 0v760M1080 0v760M1260 0v760"/></g><text x="70" y="90" fill="#eaffff" font-family="Arial,'Microsoft YaHei'" font-size="36" font-weight="800">工程软件生态地图</text><text x="70" y="126" fill="#67e8f9" font-family="Arial" font-size="16" font-weight="700" letter-spacing="3">MATLAB · ANSYS · STK · GMAT · OREKIT · CFD · GNC</text><g font-family="Arial,'Microsoft YaHei'" font-weight="800"><g transform="translate(90 205)"><rect width="250" height="96" rx="24" fill="#0d2e55" stroke="#67e8f9" stroke-opacity=".35"/><text x="30" y="42" fill="#fff" font-size="24">控制与建模</text><text x="30" y="70" fill="#9bdff1" font-size="15">MATLAB / Simulink / Stateflow</text></g><g transform="translate(415 168)"><rect width="260" height="116" rx="26" fill="#0b2448" stroke="#67e8f9" stroke-opacity=".35"/><text x="30" y="48" fill="#fff" font-size="26">任务分析</text><text x="30" y="80" fill="#9bdff1" font-size="15">STK / ODTK / GMAT / Orekit</text></g><g transform="translate(760 214)"><rect width="240" height="96" rx="24" fill="#0d2e55" stroke="#34d399" stroke-opacity=".35"/><text x="30" y="42" fill="#fff" font-size="24">CFD / 气动</text><text x="30" y="70" fill="#9bdff1" font-size="15">Fluent / SU2 / OpenFOAM</text></g><g transform="translate(1060 170)"><rect width="250" height="118" rx="26" fill="#0b2448" stroke="#67e8f9" stroke-opacity=".35"/><text x="30" y="48" fill="#fff" font-size="26">结构 / FEM</text><text x="30" y="80" fill="#9bdff1" font-size="15">Mechanical / Nastran / Abaqus</text></g><g transform="translate(210 455)"><rect width="245" height="100" rx="24" fill="#0b2448" stroke="#34d399" stroke-opacity=".35"/><text x="30" y="44" fill="#fff" font-size="24">航天器/GNC</text><text x="30" y="72" fill="#9bdff1" font-size="15">Basilisk / NASA 42</text></g><g transform="translate(565 405)"><rect width="270" height="125" rx="30" fill="url(#c)" filter="url(#g)" opacity=".95"/><text x="36" y="54" fill="#03111e" font-size="28">统一工程语境</text><text x="36" y="90" fill="#03111e" font-size="16">用途 · 成熟度 · 复现价值 · 集成位置</text></g><g transform="translate(940 455)"><rect width="260" height="100" rx="24" fill="#0b2448" stroke="#67e8f9" stroke-opacity=".35"/><text x="30" y="44" fill="#fff" font-size="24">可视化/遥测</text><text x="30" y="72" fill="#9bdff1" font-size="15">Open MCT / Cesium / UE</text></g></g><g stroke="#67e8f9" stroke-opacity=".45" stroke-width="2" fill="none"><path d="M340 252C430 235 475 225 415 226"/><path d="M675 230C730 232 760 246 760 262"/><path d="M1000 260C1040 245 1060 232 1060 229"/><path d="M455 505C520 485 560 460 565 460"/><path d="M835 462C888 470 920 492 940 500"/></g></svg>